<svg width="78" height="57" viewBox="0 0 78 57" fill="none" xmlns="http://www.w3.org/2000/svg">
<mask id="path-1-inside-1" fill="white">
<path fill-rule="evenodd" clip-rule="evenodd" d="M49.2681 0L67.4556 18.1875L67.4581 18.185L77.7209 28.4477L49.2681 56.9005L39.0054 46.6378L50.2659 35.3772L0 35.3772L0 20.8635L49.6061 20.8635L39.0054 10.2627L49.2681 0Z"/>
</mask>
<path d="M67.4556 18.1875L66.0414 19.6017L67.4567 21.017L68.8709 19.6007L67.4556 18.1875ZM49.2681 0L50.6823 -1.41421L49.2681 -2.82843L47.8539 -1.41421L49.2681 0ZM67.4581 18.185L68.8724 16.7708L67.4571 15.3555L66.0429 16.7718L67.4581 18.185ZM77.7209 28.4477L79.1351 29.8619L80.5493 28.4477L79.1351 27.0335L77.7209 28.4477ZM49.2681 56.9005L47.8539 58.3147L49.2681 59.7289L50.6823 58.3147L49.2681 56.9005ZM39.0054 46.6378L37.5912 45.2235L36.1769 46.6378L37.5912 48.052L39.0054 46.6378ZM50.2659 35.3772L51.6802 36.7914L55.0944 33.3772H50.2659V35.3772ZM0 35.3772H-2L-2 37.3772H0L0 35.3772ZM0 20.8635L0 18.8635H-2L-2 20.8635H0ZM49.6061 20.8635L49.6061 22.8635H54.4346L51.0204 19.4493L49.6061 20.8635ZM39.0054 10.2627L37.5912 8.84851L36.1769 10.2627L37.5912 11.6769L39.0054 10.2627ZM68.8698 16.7733L50.6823 -1.41421L47.8539 1.41421L66.0414 19.6017L68.8698 16.7733ZM66.0429 16.7718L66.0403 16.7744L68.8709 19.6007L68.8734 19.5981L66.0429 16.7718ZM79.1351 27.0335L68.8724 16.7708L66.0439 19.5992L76.3066 29.8619L79.1351 27.0335ZM50.6823 58.3147L79.1351 29.8619L76.3066 27.0335L47.8539 55.4863L50.6823 58.3147ZM37.5912 48.052L47.8539 58.3147L50.6823 55.4863L40.4196 45.2235L37.5912 48.052ZM48.8517 33.963L37.5912 45.2235L40.4196 48.052L51.6802 36.7914L48.8517 33.963ZM50.2659 33.3772L0 33.3772L0 37.3772L50.2659 37.3772V33.3772ZM2 35.3772L2 20.8635H-2L-2 35.3772H2ZM0 22.8635L49.6061 22.8635L49.6061 18.8635L0 18.8635L0 22.8635ZM37.5912 11.6769L48.1919 22.2777L51.0204 19.4493L40.4196 8.84851L37.5912 11.6769ZM47.8539 -1.41421L37.5912 8.84851L40.4196 11.6769L50.6823 1.41421L47.8539 -1.41421Z" fill="white" mask="url(#path-1-inside-1)"/>
</svg>
