<svg width="55" height="49" viewBox="0 0 55 49" fill="none" xmlns="http://www.w3.org/2000/svg">
<path d="M47.0348 30.6694C52.0761 27.3689 55 22.5451 55 17.3658C55 7.76891 45.0183 0 32.7681 0C20.5179 0 10.5362 7.76891 10.5362 17.3658C10.5362 17.4674 10.5866 17.9751 10.637 19.4477C4.4363 21.428 0 26.2518 0 31.8373C0 35.7979 2.16774 39.4539 5.94867 41.9927C5.59578 42.9575 5.14207 43.9731 4.58753 45.0394C2.72227 47.4259 2.97434 47.9337 3.17599 48.3399C3.37764 48.7461 3.73052 48.9492 4.18423 48.9492H4.28506C8.01558 48.6446 11.1916 47.2736 13.6618 44.9378C14.7709 45.1409 15.9303 45.1917 17.0898 45.1917C25.055 45.1917 31.7599 40.9264 33.6251 35.1378C34.3309 34.9855 35.1879 34.7824 36.1962 34.5793C36.6499 34.4777 37.0532 34.3762 37.406 34.3254C40.6324 37.4228 44.7663 39.2508 49.6563 39.657H49.7571C50.2108 39.657 50.6141 39.4031 50.8158 38.9969C51.0174 38.5399 51.3199 37.9813 48.9505 34.9347C48.1943 33.4622 47.539 32.0404 47.0348 30.6694ZM32.0623 33.1067C32.0119 33.4622 31.9111 33.8176 31.8607 34.1731C31.7599 34.6301 31.5582 35.087 31.3566 35.4933C29.3401 39.9617 23.6939 43.2114 17.0898 43.2114C15.8799 43.2114 14.67 43.1098 13.5105 42.9067L13.0064 42.8052L12.6031 43.1606C10.7883 44.9886 8.51971 46.2073 5.89826 46.715C5.99908 46.5627 6.15032 46.4104 6.25115 46.258L6.35197 46.1057C7.10816 44.6332 7.71311 43.2622 8.16682 41.8912L8.41888 41.1295L7.71311 40.7233C4.08341 38.5399 2.0165 35.2902 2.0165 31.8373C2.0165 27.2674 5.6462 23.3067 10.7883 21.5295C11.0907 21.428 11.4436 21.3264 11.7965 21.2249C12.099 21.1233 12.4519 21.0725 12.8048 20.971C14.1659 20.6663 15.6279 20.514 17.0898 20.514C25.4079 20.514 32.1632 25.5917 32.1632 31.8881C32.1632 32.2943 32.1127 32.7005 32.0623 33.1067ZM38.4143 32.4974L38.0614 32.0912L37.5573 32.1927C37.2548 32.2435 36.5994 32.3959 35.7929 32.599C35.2887 32.7005 34.7342 32.8529 34.1292 32.9544C34.1796 32.599 34.1797 32.1927 34.1797 31.7865C34.1797 24.4238 26.517 18.3813 17.0898 18.3813C15.5775 18.3813 14.0651 18.5337 12.6535 18.8383C12.6031 18.0259 12.5527 17.3658 12.5527 17.2642C12.5527 8.88601 21.6269 2.03109 32.7681 2.03109C43.9093 2.03109 52.9835 8.88601 52.9835 17.3658C52.9835 22.0373 50.2108 26.4041 45.3208 29.3492L44.615 29.7554L44.8671 30.5171C45.4216 32.2943 46.1778 34.0715 47.1861 36.001L47.2869 36.1534C47.6398 36.5596 47.9423 37.0166 48.2447 37.4228C44.363 36.8135 41.0357 35.1886 38.4143 32.4974Z" fill="white"/>
<path d="M17.2406 33.5635C16.2324 33.5635 15.4258 34.3759 15.4258 35.3915C15.4258 36.407 16.2324 37.2194 17.2406 37.2194C18.2489 37.2194 19.0555 36.407 19.0555 35.3915C19.0555 34.3759 18.2489 33.5635 17.2406 33.5635Z" fill="white"/>
<path d="M23.2904 33.5635C22.2822 33.5635 21.4756 34.3759 21.4756 35.3915C21.4756 36.407 22.2822 37.2194 23.2904 37.2194C24.2987 37.2194 25.1053 36.407 25.1053 35.3915C25.1053 34.3759 24.2987 33.5635 23.2904 33.5635Z" fill="white"/>
<path d="M11.1918 33.5635C10.1836 33.5635 9.37695 34.3759 9.37695 35.3915C9.37695 36.407 10.1836 37.2194 11.1918 37.2194C12.2001 37.2194 13.0066 36.407 13.0066 35.3915C13.0066 34.3759 12.2001 33.5635 11.1918 33.5635Z" fill="white"/>
</svg>
