<svg width="150" height="150" viewBox="0 0 150 150" fill="none" xmlns="http://www.w3.org/2000/svg">
<path d="M75.5044 53.3934V45.0046C75.5044 44.4521 75.0523 44 74.4998 44C73.9472 44 73.4951 44.4521 73.4951 45.0046V53.3934C73.4951 53.9459 73.9472 54.398 74.4998 54.398C75.0523 54.4482 75.5044 53.9961 75.5044 53.3934Z" fill="white"/>
<path d="M105.996 76.2991H97.6072C97.0546 76.2991 96.6025 76.7512 96.6025 77.3037C96.6025 77.8563 97.0546 78.3083 97.6072 78.3083H105.996C106.548 78.3083 107.001 77.8563 107.001 77.3037C107.001 76.7512 106.548 76.2991 105.996 76.2991Z" fill="white"/>
<path d="M91.6796 61.33L97.6069 55.4026C98.0088 55.0008 98.0088 54.3478 97.6069 53.9459C97.2051 53.5441 96.5521 53.5441 96.1502 53.9459L90.2731 59.8733C89.8712 60.2751 89.8712 60.9282 90.2731 61.33C90.474 61.5309 90.7252 61.6314 90.9763 61.6314C91.2275 61.6314 91.4786 61.4807 91.6796 61.33Z" fill="white"/>
<path d="M51.3934 76.2991H43.0046C42.4521 76.2991 42 76.7512 42 77.3037C42 77.8563 42.4521 78.3083 43.0046 78.3083H51.3934C51.9459 78.3083 52.398 77.8563 52.398 77.3037C52.4482 76.7512 51.9961 76.2991 51.3934 76.2991Z" fill="white"/>
<path d="M58.7275 59.8733L52.8001 53.9459C52.3983 53.5441 51.7452 53.5441 51.3434 53.9459C50.9415 54.3478 50.9415 55.0008 51.3434 55.4026L57.2707 61.33C57.4717 61.5309 57.7228 61.6314 57.974 61.6314C58.2251 61.6314 58.4763 61.5309 58.6772 61.33C59.1293 60.9282 59.1293 60.2751 58.7275 59.8733Z" fill="white"/>
<path d="M84.1446 88.9574C88.3138 85.8932 90.7752 81.0207 90.7752 75.8468C90.7752 66.8553 83.4413 59.5215 74.4498 59.5215C65.4081 59.5215 58.0742 66.8553 58.0742 75.8468C58.0742 81.0207 60.5356 85.8932 64.7048 88.9574V93.5787C64.7048 94.1312 65.1569 94.5833 65.7095 94.5833H83.1399C83.6925 94.5833 84.1446 94.1312 84.1446 93.5787V88.9574ZM72.3903 92.574C72.4405 92.4234 72.4908 92.3229 72.4908 92.1722V79.7147C73.6963 79.8152 75.2033 79.8152 76.4088 79.7147V92.122C76.4088 92.2727 76.4591 92.4234 76.5093 92.5238H72.3903V92.574ZM82.5874 87.6011C82.3362 87.802 82.1353 88.1034 82.1353 88.455V92.574H78.3177C78.3679 92.4234 78.4181 92.3229 78.4181 92.1722V79.4133C82.3864 78.5594 83.2906 76.3994 83.4413 74.9427C83.6422 72.9836 82.4367 70.7734 80.9297 70.4218C79.8748 70.1706 78.8702 70.3716 78.1167 70.9743C76.9614 71.8785 76.4088 73.6869 76.4088 76.2989V77.6552C75.2033 77.7556 73.6963 77.7556 72.4908 77.6552V76.2989C72.4908 73.6869 71.888 71.8785 70.7829 70.9743C70.0294 70.3716 69.075 70.1706 67.9699 70.4218C66.4629 70.7734 65.2071 72.9836 65.4583 74.9427C65.609 76.3492 66.5132 78.5091 70.4815 79.4133V92.122C70.4815 92.2727 70.5317 92.4234 70.582 92.5238H66.7643V88.4048C66.7643 88.0532 66.6136 87.7518 66.3122 87.5509C62.4444 84.8886 60.1337 80.4682 60.1337 75.7966C60.1337 67.9102 66.5634 61.4805 74.4498 61.4805C82.3362 61.4805 88.7659 67.9102 88.7659 75.7966C88.7659 80.5184 86.4552 84.9388 82.5874 87.6011ZM78.4181 77.3538V76.3492C78.4181 73.7371 79.0209 72.8832 79.3725 72.5818C79.473 72.5315 79.6237 72.3808 80.0255 72.3808C80.126 72.3808 80.2767 72.3808 80.4274 72.4311C80.7288 72.5315 81.5827 73.6366 81.3818 74.8422C81.2311 75.9975 80.1762 76.8515 78.4181 77.3538ZM70.4313 76.3492V77.3538C68.6731 76.8515 67.6183 76.0478 67.4173 74.8924C67.2164 73.6869 68.0201 72.5818 68.3717 72.4813C68.5224 72.4311 68.6731 72.4311 68.7736 72.4311C69.1755 72.4311 69.3764 72.5818 69.4266 72.632C69.8285 72.8832 70.4313 73.7371 70.4313 76.3492Z" fill="white"/>
<path d="M82.9389 97.7983H65.8601C65.3076 97.7983 64.8555 98.2504 64.8555 98.803C64.8555 99.3555 65.3076 99.8076 65.8601 99.8076H82.9389C83.4915 99.8076 83.9436 99.3555 83.9436 98.803C83.9938 98.2504 83.5417 97.7983 82.9389 97.7983Z" fill="white"/>
<path d="M82.9389 103.424H65.8601C65.3076 103.424 64.8555 103.876 64.8555 104.429C64.8555 104.982 65.3076 105.434 65.8601 105.434H82.9389C83.4915 105.434 83.9436 104.982 83.9436 104.429C83.9938 103.876 83.5417 103.424 82.9389 103.424Z" fill="white"/>
<circle cx="75" cy="75" r="74" stroke="white" stroke-width="2"/>
</svg>
