<svg width="356" height="353" viewBox="0 0 356 353" fill="none" xmlns="http://www.w3.org/2000/svg">
<path d="M355 176.5C355 273.418 275.762 352 178 352C80.2376 352 1 273.418 1 176.5C1 79.582 80.2376 1 178 1C275.762 1 355 79.582 355 176.5Z" stroke="white" stroke-width="2"/>
<path d="M253.145 172.019L231.44 164.591L231.541 157.429L270.495 171.836L270.367 180.86L231.02 194.205L231.122 186.985L253.016 180.186L253.016 180.186L253.025 180.183C256.371 179.11 259.776 178.232 263.224 177.553L264.019 177.397L264.03 176.586L264.041 175.868L264.052 175.052L263.255 174.877C259.832 174.129 256.459 173.175 253.151 172.021L253.145 172.019Z" fill="white" stroke="white" stroke-width="2"/>
<path d="M94.048 182H95.728L90.64 170.8H89.056L83.984 182H85.632L86.864 179.2H92.816L94.048 182ZM87.424 177.92L89.84 172.432L92.256 177.92H87.424ZM97.3988 182H105.063V180.608H98.9988V170.8H97.3988V182ZM106.899 182H114.563V180.608H108.499V170.8H106.899V182ZM125.064 170.8H120.696V182H122.296V178.608H125.064C127.976 178.608 129.736 177.136 129.736 174.704C129.736 172.272 127.976 170.8 125.064 170.8ZM125.016 177.216H122.296V172.192H125.016C127.064 172.192 128.136 173.104 128.136 174.704C128.136 176.304 127.064 177.216 125.016 177.216ZM141.318 182L138.662 178.24C140.23 177.68 141.126 176.432 141.126 174.704C141.126 172.272 139.366 170.8 136.454 170.8H132.086V182H133.686V178.592H136.454C136.694 178.592 136.934 178.576 137.158 178.56L139.574 182H141.318ZM136.406 177.232H133.686V172.192H136.406C138.454 172.192 139.526 173.104 139.526 174.704C139.526 176.304 138.454 177.232 136.406 177.232ZM148.767 182.128C152.175 182.128 154.703 179.696 154.703 176.4C154.703 173.104 152.175 170.672 148.767 170.672C145.327 170.672 142.799 173.12 142.799 176.4C142.799 179.68 145.327 182.128 148.767 182.128ZM148.767 180.704C146.255 180.704 144.399 178.88 144.399 176.4C144.399 173.92 146.255 172.096 148.767 172.096C151.247 172.096 153.103 173.92 153.103 176.4C153.103 178.88 151.247 180.704 148.767 180.704ZM164.909 179.984C164.109 180.496 163.229 180.704 162.285 180.704C159.709 180.704 157.837 178.864 157.837 176.4C157.837 173.904 159.709 172.096 162.301 172.096C163.565 172.096 164.621 172.496 165.549 173.392L166.541 172.4C165.517 171.264 164.013 170.672 162.237 170.672C158.765 170.672 156.237 173.088 156.237 176.4C156.237 179.712 158.765 182.128 162.205 182.128C163.773 182.128 165.325 181.648 166.445 180.704V176.336H164.909V179.984ZM171.108 180.608V176.992H176.724V175.632H171.108V172.192H177.412V170.8H169.508V182H177.636V180.608H171.108ZM185.188 182.128C186.932 182.128 188.436 181.52 189.46 180.368L188.42 179.36C187.556 180.272 186.5 180.704 185.268 180.704C182.74 180.704 180.868 178.88 180.868 176.4C180.868 173.92 182.74 172.096 185.268 172.096C186.5 172.096 187.556 172.512 188.42 173.424L189.46 172.416C188.436 171.264 186.932 170.672 185.204 170.672C181.796 170.672 179.268 173.088 179.268 176.4C179.268 179.712 181.796 182.128 185.188 182.128ZM193.842 182H195.426V172.192H199.266V170.8H190.002V172.192H193.842V182ZM204.132 182.128C207.092 182.128 208.468 180.656 208.468 178.944C208.468 174.832 201.684 176.544 201.684 173.808C201.684 172.832 202.5 172.032 204.404 172.032C205.396 172.032 206.5 172.32 207.476 172.944L208.003 171.664C207.076 171.024 205.716 170.672 204.404 170.672C201.46 170.672 200.116 172.144 200.116 173.872C200.116 178.032 206.9 176.304 206.9 179.04C206.9 180.016 206.068 180.768 204.132 180.768C202.692 180.768 201.268 180.224 200.436 179.472L199.844 180.72C200.74 181.552 202.42 182.128 204.132 182.128Z" fill="white"/>
</svg>
