<svg width="63" height="86" viewBox="0 0 63 86" fill="none" xmlns="http://www.w3.org/2000/svg">
<mask id="path-1-inside-1" fill="white">
<path fill-rule="evenodd" clip-rule="evenodd" d="M62.7275 54.3135L42.6774 74.3636L42.6801 74.3663L31.3664 85.68L-0.000139703 54.3135L11.3136 42.9998L23.7275 55.4137L23.7275 -1.70474e-06L39.7275 -1.00536e-06L39.7275 54.6861L51.4138 42.9998L62.7275 54.3135Z"/>
</mask>
<path d="M42.6774 74.3636L41.2632 72.9494L39.848 74.3646L41.2642 75.7788L42.6774 74.3636ZM62.7275 54.3135L64.1418 55.7277L65.556 54.3135L64.1418 52.8993L62.7275 54.3135ZM42.6801 74.3663L44.0943 75.7805L45.5095 74.3653L44.0933 72.9511L42.6801 74.3663ZM31.3664 85.68L29.9522 87.0943L31.3664 88.5085L32.7806 87.0943L31.3664 85.68ZM-0.000139703 54.3135L-1.41435 52.8993L-2.82857 54.3135L-1.41435 55.7277L-0.000139703 54.3135ZM11.3136 42.9998L12.7278 41.5856L11.3136 40.1713L9.89936 41.5855L11.3136 42.9998ZM23.7275 55.4137L22.3133 56.8279L25.7275 60.2422L25.7275 55.4137L23.7275 55.4137ZM23.7275 -1.70474e-06L23.7275 -2L21.7275 -2L21.7275 -1.79217e-06L23.7275 -1.70474e-06ZM39.7275 -1.00536e-06L41.7275 -9.87696e-07L41.7275 -2L39.7275 -2L39.7275 -1.00536e-06ZM39.7275 54.6861L37.7275 54.6861L37.7275 59.5145L41.1417 56.1003L39.7275 54.6861ZM51.4138 42.9998L52.828 41.5856L51.4138 40.1713L49.9996 41.5856L51.4138 42.9998ZM44.0916 75.7778L64.1418 55.7277L61.3133 52.8993L41.2632 72.9494L44.0916 75.7778ZM44.0933 72.9511L44.0906 72.9484L41.2642 75.7788L41.2669 75.7815L44.0933 72.9511ZM32.7806 87.0943L44.0943 75.7805L41.2659 72.9521L29.9522 84.2658L32.7806 87.0943ZM-1.41435 55.7277L29.9522 87.0943L32.7806 84.2658L1.41408 52.8993L-1.41435 55.7277ZM9.89936 41.5855L-1.41435 52.8993L1.41408 55.7277L12.7278 44.414L9.89936 41.5855ZM25.1418 53.9995L12.7278 41.5856L9.89935 44.414L22.3133 56.8279L25.1418 53.9995ZM25.7275 55.4137L25.7275 -1.61732e-06L21.7275 -1.79217e-06L21.7275 55.4137L25.7275 55.4137ZM23.7275 2L39.7275 2L39.7275 -2L23.7275 -2L23.7275 2ZM37.7275 -1.02303e-06L37.7275 54.6861L41.7275 54.6861L41.7275 -9.87696e-07L37.7275 -1.02303e-06ZM49.9996 41.5856L38.3133 53.2718L41.1417 56.1003L52.828 44.414L49.9996 41.5856ZM64.1418 52.8993L52.828 41.5856L49.9996 44.414L61.3133 55.7277L64.1418 52.8993Z" fill="white" mask="url(#path-1-inside-1)"/>
</svg>
