<svg width="150" height="150" viewBox="0 0 150 150" fill="none" xmlns="http://www.w3.org/2000/svg">
<circle cx="75" cy="75" r="74" stroke="white" stroke-width="2"/>
<path d="M74.7413 65.9863C75.3214 65.9863 75.7961 65.5116 75.7961 64.9315C75.7961 64.3514 75.3214 63.8767 74.7413 63.8767C68.7817 63.8767 63.9824 68.7288 63.9824 74.6356C63.9824 80.5424 68.7817 85.3945 74.7413 85.3945C80.7009 85.3945 85.5002 80.5424 85.5002 74.6356C85.5002 74.0555 85.0255 73.5808 84.4454 73.5808C83.8653 73.5808 83.3906 74.0555 83.3906 74.6356C83.3906 79.3822 79.4879 83.2849 74.7413 83.2849C69.9947 83.2849 66.092 79.3822 66.092 74.6356C66.092 69.8363 69.9947 65.9863 74.7413 65.9863Z" fill="white"/>
<path d="M74.7412 55.7021C64.2987 55.7021 55.8076 64.1932 55.8076 74.6357C55.8076 85.0781 64.2987 93.5692 74.7412 93.5692C85.1836 93.5692 93.6747 85.0781 93.6747 74.6357C93.6747 74.0555 93.2 73.5809 92.6199 73.5809C92.0398 73.5809 91.5651 74.0555 91.5651 74.6357C91.5651 83.9179 84.0233 91.4069 74.7939 91.4069C65.5117 91.4069 58.0227 83.8651 58.0227 74.6357C58.0227 65.4062 65.5645 57.8645 74.7939 57.8645C75.374 57.8645 75.8487 57.3898 75.8487 56.8097C75.7959 56.1768 75.3213 55.7021 74.7412 55.7021Z" fill="white"/>
<path d="M101.427 73.5808C100.847 73.5808 100.373 74.0555 100.373 74.6356C100.373 88.7698 88.8753 100.267 74.7411 100.267C60.6068 100.267 49.1096 88.7698 49.1096 74.6356C49.1096 60.5014 60.6068 49.0041 74.7411 49.0041C75.3212 49.0041 75.7959 48.5295 75.7959 47.9493C75.7959 47.3692 75.3212 46.8945 74.7411 46.8945C59.4466 46.8945 47 59.3411 47 74.6356C47 89.9301 59.4466 102.377 74.7411 102.377C90.0356 102.377 102.482 89.9301 102.482 74.6356C102.482 74.0555 102.007 73.5808 101.427 73.5808Z" fill="white"/>
<path d="M108.6 52.7486C108.495 52.3795 108.178 52.1158 107.809 52.0103L99.5817 50.0589L97.6303 41.8315C97.5249 41.4623 97.2612 41.1459 96.892 41.0404C96.5228 40.9349 96.1009 41.0404 95.8372 41.3041L86.2386 50.9027C85.9749 51.1664 85.8694 51.5356 85.9749 51.9048L87.9262 60.1849L73.9502 73.8972C73.5283 74.3192 73.5283 75.0048 73.9502 75.4267C74.1612 75.6376 74.4249 75.7431 74.6886 75.7431C74.9523 75.7431 75.216 75.6376 75.4269 75.4267L89.4557 61.6616L97.7358 63.6657C97.8413 63.6657 97.894 63.7185 97.9995 63.7185C98.2632 63.7185 98.5269 63.613 98.7379 63.402L108.336 53.8034C108.6 53.487 108.706 53.1178 108.6 52.7486ZM97.6303 61.4507L89.9831 59.6048L88.1372 51.9575L95.9427 44.0993L97.6303 51.1137C97.7358 51.4829 98.0523 51.7993 98.4214 51.9048L105.436 53.5925L97.6303 61.4507Z" fill="white"/>
</svg>
