<svg width="110" height="40" viewBox="0 0 110 40" fill="none" xmlns="http://www.w3.org/2000/svg">
<path d="M28.8833 31.9692H31.5619C33.1342 31.9692 33.8912 32.4933 33.8912 33.658C33.8912 35.0555 32.9595 35.6961 32.3772 35.8708V35.929C32.7848 36.0455 33.4254 36.3949 33.4254 37.3266C33.4254 38.9571 32.4354 39.8305 30.4555 39.8305H27.5439L28.8833 31.9692ZM30.3391 38.7241C31.6202 38.7241 31.9696 38.2583 31.9696 37.2683C31.9696 36.686 31.6202 36.3949 30.7467 36.3949H29.4656L29.058 38.7241H30.3391ZM30.8049 35.3467C32.2025 35.3467 32.4354 34.7061 32.4354 33.8909C32.4354 33.3668 32.1443 33.0756 31.329 33.0756H30.0479L29.6403 35.3467H30.8049Z" fill="white"/>
<path d="M40.5294 31.9692H42.9169C44.7221 31.9692 45.4791 32.7263 45.4791 34.0656C45.4791 35.4049 44.6639 36.3366 43.4992 36.6278V36.686C43.8486 37.0936 44.7221 39.4811 45.0715 39.5976L45.0133 39.7723H43.6157C43.2663 39.5394 42.4511 37.1519 42.1599 36.9189H41.0535L40.5294 39.7723H39.1318L40.5294 31.9692ZM42.2764 35.8708C43.6157 35.8708 43.9651 35.0555 43.9651 34.182C43.9651 33.5997 43.6157 33.0756 42.7422 33.0756H41.6358L41.17 35.8708H42.2764Z" fill="white"/>
<path d="M54.0971 31.9692H55.7276L57.0669 39.8305H55.7276L55.4364 37.9089H52.5248L51.5349 39.8305H50.0791L54.0971 31.9692ZM55.32 36.8607L54.9706 34.5897C54.9123 34.182 54.8541 33.7744 54.7959 33.1921H54.7377C54.5047 33.7744 54.33 34.1238 54.0971 34.5314L52.9325 36.8025H55.32V36.8607Z" fill="white"/>
<path d="M64.2296 31.9692H65.6272L67.4906 36.5113C67.6653 36.9189 67.84 37.5013 67.9564 37.9671H68.0729C68.1311 37.3266 68.1894 36.686 68.3058 36.2202L69.0628 31.9692H70.4604L69.0628 39.8305H67.6653L65.8019 35.3467C65.5689 34.8808 65.4525 34.3567 65.2778 33.7744H65.1613C65.1613 34.2985 65.0448 34.9973 64.9284 35.6378L64.1714 39.8305H62.832L64.2296 31.9692Z" fill="white"/>
<path d="M76.9243 31.9692H79.37C81.4664 31.9692 82.5146 33.0174 82.5146 35.0555C82.5146 38.0254 81.1752 39.8305 78.3219 39.8305H75.585L76.9243 31.9692ZM78.2636 38.6659C80.2435 38.6659 81.0588 37.3848 81.0588 35.0555C81.0588 33.8327 80.4764 33.0756 79.2536 33.0756H78.0889L77.099 38.6659H78.2636Z" fill="white"/>
<path d="M5.2991 16.2467V16.9455C5.2991 18.6924 6.46374 20.4394 10.0159 20.4394C12.8692 20.4394 14.2668 19.5077 14.2668 17.586C14.2668 16.4214 13.3933 15.6061 11.297 14.9656L6.40551 13.6263C2.96983 12.5781 0.465855 10.7729 0.465855 6.98782C0.465855 3.14452 3.78507 0 9.89942 0C17.6443 0 18.9836 4.07623 18.9836 6.5802C18.9836 6.98782 18.9254 7.39545 18.8671 7.74484L13.801 7.80307C13.8592 7.45368 13.8592 7.27898 13.8592 7.04606C13.8592 5.53203 13.0439 4.13446 9.72472 4.13446C6.98782 4.19269 5.82319 5.2991 5.82319 6.87136C5.82319 8.44362 6.98782 8.90948 8.73478 9.43356L13.7427 10.9476C17.4696 12.1122 19.7406 13.801 19.7406 17.5278C19.7406 21.5458 16.2467 24.6321 9.78295 24.6321C1.33933 24.6903 0 20.2647 0 17.4696C0 17.1202 0.0582319 16.7125 0.116464 16.3632L5.2991 16.2467Z" fill="white"/>
<path d="M32.5512 0.349365H27.4268V24.3409H32.5512V0.349365Z" fill="white"/>
<path d="M41.6943 0.349365H46.8187V20.09H58.4651V24.3409H41.6943V0.349365Z" fill="white"/>
<path d="M60.7354 0.349365H66.2091L70.4601 13.4515C71.1006 15.4314 71.6247 17.2948 72.0906 19.4494H72.4982C72.964 17.2948 73.4299 15.4314 74.0704 13.4515L78.3214 0.349365H83.7369L75.2351 24.3409H69.1207L60.7354 0.349365Z" fill="white"/>
<path d="M94.9761 0.349365H101.323L110 24.3409H104.701L102.721 18.9253H93.6368L91.7151 24.3409H86.416L94.9761 0.349365ZM101.731 15.082L99.5182 8.85122C99.0523 7.51189 98.7029 6.28902 98.2953 4.71676H98.0042C97.6548 6.23078 97.2471 7.51189 96.8395 8.73475L94.5685 15.082H101.731Z" fill="white"/>
</svg>
